<?xml version="1.0" encoding="utf-8"?>
<!-- Generator: Adobe Illustrator 19.2.1, SVG Export Plug-In . SVG Version: 6.00 Build 0)  -->
<svg version="1.1" id="Layer_1" xmlns="http://www.w3.org/2000/svg" xmlns:xlink="http://www.w3.org/1999/xlink" x="0px" y="0px"
	 viewBox="0 0 153.9 124.8" style="enable-background:new 0 0 153.9 124.8;" xml:space="preserve">
<style type="text/css">
	.st0{fill-rule:evenodd;clip-rule:evenodd;fill:#FFFFFF;}
</style>
<g id="CaAqX0_1_">
	<g>
		<path class="st0" d="M62.3,114.5c-10.5-2.1-7-1.4-17.4-4c-3-0.7-4.9-0.5-7.2,1.3c-5.1,4.1-10.2,8-15.5,11.8
			c-1.2,0.9-3.2,0.7-4.8,1.1c-0.2-1.7-1-3.5-0.6-5c1.3-5.5,2.8-11,4.7-16.3c1.1-3.2,0.4-5-2.1-7.2C7.4,86-0.3,73.3,0,56.9
			c0.3-15.4,7.5-27.5,19-37C38,3.9,60.4-1.5,84.8,0.4c20.5,1.6,39,8.3,53.9,23.2c20.2,20.2,20.3,48.1,0.3,68.7
			c-14.5,15-37.4,23.7-62.3,23.7C68.5,115.5,63.9,114.8,62.3,114.5z"/>
	</g>
</g>
</svg>
