<?xml version="1.0" encoding="utf-8"?>
<!-- Generator: Adobe Illustrator 19.2.1, SVG Export Plug-In . SVG Version: 6.00 Build 0)  -->
<svg version="1.1" id="Layer_1" xmlns="http://www.w3.org/2000/svg" xmlns:xlink="http://www.w3.org/1999/xlink" x="0px" y="0px"
	 viewBox="0 0 200 186" style="enable-background:new 0 0 200 186;" xml:space="preserve">
<style type="text/css">
	.st0{fill:#1A1A1A;}
</style>
<path class="st0" d="M108.6,64.9H86.9c-2.2,0-4-1.8-4-4V4c0-2.2,1.8-4,4-4h21.7c2.2,0,4,1.8,4,4v56.9
	C112.6,63.1,110.8,64.9,108.6,64.9z"/>
<path class="st0" d="M195.2,57.3c0,0-44.9-48.4-49.1-53.5c-2.5-3.1-5.6-3.8-7.2-3.9h-14.8C122,0,120,1.4,120,3.6V24v43.8
	c0,2.2-2.3,4.2-4.5,4.2H46.3c-2.2,0-4.3-2-4.3-4.2V24V4c0-2.2-2.1-4-4.3-4H4.4C2.2,0,0,1.8,0,4v20v157.6c0,2.2,2.2,4.4,4.4,4.4h192
	c2.2,0,3.6-2.2,3.6-4.4V90.8V68.1C199.8,61.8,195.2,57.3,195.2,57.3z"/>
</svg>
