<?xml version="1.0" encoding="utf-8"?>
<!-- Generator: Adobe Illustrator 19.2.1, SVG Export Plug-In . SVG Version: 6.00 Build 0)  -->
<svg version="1.1" id="Layer_1" xmlns="http://www.w3.org/2000/svg" xmlns:xlink="http://www.w3.org/1999/xlink" x="0px" y="0px"
	 viewBox="0 0 148.9 287.8" style="enable-background:new 0 0 148.9 287.8;" xml:space="preserve">
<style type="text/css">
	.st0{fill:#FFFFFF;}
</style>
<path class="st0" d="M148.9,1.7c0,15.9,0,30.7,0,46.2c-4.6,0-9-0.1-13.4,0c-7.5,0.2-15,0.1-22.4,1c-9.4,1.2-14.8,6.1-15.4,15.6
	c-0.9,13.4-0.2,26.9-0.2,40.9c16.3,0,32.8,0,49.9,0c-1.2,9.4-2.3,18.3-3.4,27.1c-0.8,6.4-2,12.8-2.5,19.3c-0.3,3.8-1.5,5.1-5.4,5
	c-11-0.3-22-0.1-33-0.1c-1.8,0-3.6,0-6,0c0,43.9,0,87.3,0,131c-18,0-35.4,0-53.4,0c0-43.6,0-87.1,0-130.9c-14.7,0-28.8,0-43.5,0
	c0-17.1,0-33.8,0-51.1c14.1,0,28.4,0,43.1,0c0.2-2.5,0.3-4.4,0.4-6.3c0.3-14.8-0.5-29.7,1-44.4C47.7,24,68.8,4,100.2,0.7
	c5.6-0.6,11.3-0.8,16.9-0.6C127.6,0.4,138,1.1,148.9,1.7z"/>
</svg>
