<?xml version="1.0" encoding="utf-8"?>
<!-- Generator: Adobe Illustrator 19.2.1, SVG Export Plug-In . SVG Version: 6.00 Build 0)  -->
<svg version="1.1" id="Layer_1" xmlns="http://www.w3.org/2000/svg" xmlns:xlink="http://www.w3.org/1999/xlink" x="0px" y="0px"
	 viewBox="0 0 350.4 167.4" style="enable-background:new 0 0 350.4 167.4;" xml:space="preserve">
<style type="text/css">
	.st0{fill:none;stroke:#000000;stroke-width:3;stroke-miterlimit:10;}
</style>
<g>
	<path class="st0" d="M211,2.7c0,0,27.1,2.2,46.4,21.1s33,33.9,62,33.9s29,0,29,0l-28.1,88.8c0,0-22.5,9.3-46.7-3
		c-24.2-12.3-21.1-21.8-40.5-42s-47.1-30.5-47.1-30.5L211,2.7z"/>
	<polygon points="211.5,20.2 250.7,38.7 236.1,71.3 197.5,53.8 	"/>
	<path d="M255.9,114.9l15.9-29.3l-34.6-14.4l-3.1-1.4l-9.5,21.3c0,0,14.4,15.1,18.1,20.2c3.7,5.1,15.3,25.7,30.6,31.4
		c15.3,5.7,14,5.4,14,5.4s1.7-11.4,5.2-15.7L255.9,114.9z"/>
	<g>
		<path d="M292,51.9c-16.8-8.8-34.7-28.1-34.7-28.1l-6.7,14.8l36,16.3l2.7-4.4C290.1,51,291.1,51.5,292,51.9z"/>
		<path d="M321.7,57.7c-1.5,6.6-4,12.2-4,12.2l-10.2-4.2l-20.9-10.7l-14.9,30.7l32.9,15.1l14-29.4l21.9,11.3l7.9-24.1L321.7,57.7z"
			/>
	</g>
	<polygon points="331,112.5 304.6,100.7 292.4,132.4 311.2,142.9 309.4,148.1 320.3,146.5 324.2,134.9 	"/>
	<path d="M142,164.9c0,0,6.3,3.3,7.7,2.3c1.3-1,69-164.5,69-164.5L210,0L142,164.9z"/>
</g>
<g>
	<path class="st0" d="M139.4,2.7c0,0-27.1,2.2-46.4,21.1s-33,33.9-62,33.9s-29,0-29,0l28.1,88.8c0,0,22.5,9.3,46.7-3
		c24.2-12.3,21.1-21.8,40.5-42s47.1-30.5,47.1-30.5L139.4,2.7z"/>
	<polygon points="139,20.2 99.8,38.7 114.3,71.3 152.9,53.8 	"/>
	<path d="M94.5,114.9L78.7,85.6l34.6-14.4l3.1-1.4l9.5,21.3c0,0-14.4,15.1-18.1,20.2s-15.3,25.7-30.6,31.4s-14,5.4-14,5.4
		s-1.7-11.4-5.2-15.7L94.5,114.9z"/>
	<g>
		<path d="M58.4,51.9c16.8-8.8,34.7-28.1,34.7-28.1l6.7,14.8l-36,16.3l-2.7-4.4C60.3,51,59.4,51.5,58.4,51.9z"/>
		<path d="M28.7,57.7c1.5,6.6,4,12.2,4,12.2l10.2-4.2l20.9-10.7l14.9,30.7l-32.9,15.1l-14-29.4L9.9,82.5L2,58.4L28.7,57.7z"/>
	</g>
	<polygon points="19.4,112.5 45.8,100.7 58,132.4 39.2,142.9 41,148.1 30.2,146.5 26.2,134.9 	"/>
	<path d="M208.4,164.9c0,0-6.3,3.3-7.7,2.3c-1.3-1-69-164.5-69-164.5l8.7-2.7L208.4,164.9z"/>
</g>
</svg>
