<?xml version="1.0" encoding="utf-8"?>
<!-- Generator: Adobe Illustrator 19.2.1, SVG Export Plug-In . SVG Version: 6.00 Build 0)  -->
<svg version="1.1" id="Layer_1" xmlns="http://www.w3.org/2000/svg" xmlns:xlink="http://www.w3.org/1999/xlink" x="0px" y="0px"
	 viewBox="0 0 476.2 302.9" style="enable-background:new 0 0 476.2 302.9;" xml:space="preserve">
<style type="text/css">
	.st0{fill:#52A825;}
</style>
<path class="st0" d="M252.6,39.8c-13.6,13.1-27,26-40.8,39.2c-1.5-1.2-2.9-2.3-4.2-3.4c-17.7-14.9-38.3-20.8-61.2-19.4
	c-32.7,2.1-57.3,17.7-74.7,45C45.3,142.6,57.8,201.3,98,229.7c33.2,23.5,80.4,20.8,108,0.6c16.1-11.8,28.3-30.7,30.7-48.6
	c-28.3,0-56.5,0-85.1,0c0-17.6,0-34.7,0-52c47.4,0,94.7,0,143.1,0c0.7,8.7,2,17.6,2,26.4c-0.1,21.8-3.7,43.1-12.4,63.3
	c-15.5,36.1-41.6,61-78.7,74c-36.3,12.7-72.9,12.7-108.9-1.2c-37.3-14.5-64.9-39.8-82.1-76.2C-14.9,153.6,1.1,79.1,54.4,34.9
	C80.2,13.5,110.2,1.8,144,0.2c40.9-1.9,76.7,10.3,107.1,37.8C251.5,38.4,251.8,38.8,252.6,39.8z"/>
<path class="st0" d="M432.2,216.4c0-15,0-29,0-43l0,0h44v-27h-0.3c0-3,0.3-6.5,0.3-9.7c0-2.3,0-4.3,0-7.3c-15,0-29,0-44,0
	c0-15,0-29,0-43c-15,0-29,0-43,0c0,15,0,29,0,43c-15,0-29,0-43,0c0,6,0,11.3,0,16.8c0,8.9,0,18.2,0,27.2h43c0,15,0,29,0,43
	C404.2,216.4,418.2,216.4,432.2,216.4z"/>
</svg>
