<?xml version="1.0" encoding="utf-8"?>
<!-- Generator: Adobe Illustrator 19.2.1, SVG Export Plug-In . SVG Version: 6.00 Build 0)  -->
<svg version="1.1" id="Layer_1" xmlns="http://www.w3.org/2000/svg" xmlns:xlink="http://www.w3.org/1999/xlink" x="0px" y="0px"
	 viewBox="0 0 17 17" style="enable-background:new 0 0 17 17;" xml:space="preserve">
<style type="text/css">
	.st0{fill:none;stroke:#C4C4C4;stroke-miterlimit:10;}
	.st1{fill:#292929;}
</style>
<circle class="st0" cx="8.5" cy="8.5" r="8"/>
<g>
	<path class="st1" d="M6,6.4C6.1,4.8,7,4,8.5,4c1.4,0,2.4,0.7,2.4,2c0,1.9-1.9,2-1.9,3.6H7.9c0-1.9,1.7-1.9,1.7-3.4
		c0-0.7-0.5-1-1.2-1c-0.8,0-1.2,0.4-1.3,1.2L6,6.4z M9.2,11.6c0,0.5-0.3,0.8-0.8,0.8c-0.4,0-0.8-0.3-0.8-0.8c0-0.5,0.3-0.8,0.8-0.8
		C8.9,10.8,9.2,11.1,9.2,11.6z"/>
</g>
</svg>
