<?xml version="1.0" encoding="utf-8"?>
<!-- Generator: Adobe Illustrator 19.2.1, SVG Export Plug-In . SVG Version: 6.00 Build 0)  -->
<svg version="1.1" id="Layer_1" xmlns="http://www.w3.org/2000/svg" xmlns:xlink="http://www.w3.org/1999/xlink" x="0px" y="0px"
	 viewBox="0 0 269.9 214.8" style="enable-background:new 0 0 269.9 214.8;" xml:space="preserve">
<path d="M135.3,43.7c12.4,10.2,24.8,20.5,37.3,30.7c18.5,15.3,37.1,30.5,55.4,45.9c1.7,1.4,3.2,4.3,3.2,6.6
	c0.2,24.8,0.2,49.7,0.1,74.5c0,9.7-3.9,13.5-13.7,13.5c-20.2,0-40.3,0-61.1,0c0-21.3,0-42.4,0-63.8c-14.5,0-28.4,0-42.8,0
	c0,21.1,0,42.2,0,63.5c-2,0.1-3.5,0.3-4.9,0.3c-19.2,0-38.3,0-57.5,0c-8.6,0-12.6-3.9-12.6-12.5c0-25.3-0.1-50.7,0.1-76
	c0-1.8,1-4.3,2.4-5.4c30.8-25.6,61.6-51,92.5-76.4C134,44.2,134.5,44.1,135.3,43.7z"/>
<path d="M135,28.7c-13,10.8-25.8,21.4-38.5,32.1C71.6,81.5,46.8,102.2,22,122.9c-5.9,4.9-7.8,4.7-12.7-1c-2.3-2.7-4.5-5.3-6.7-8
	c-3.6-4.5-3.4-6.8,1-10.5c16.7-14,33.5-28,50.3-41.9c21.9-18.2,43.8-36.4,65.6-54.7c10.7-8.9,20.2-8.9,30.9,0
	c12.4,10.3,24.8,20.7,37.8,31.6c0.2-1.9,0.5-3,0.5-4.2c0-9,0.1-18,0-27c0-4.4,1.9-6.4,6.4-6.3c9.7,0.1,19.3,0,29,0
	c6,0,7.3,1.3,7.3,7.4c0,20.5,0.1,41,0,61.5c0,3.3,1,5.5,3.6,7.6c10.6,8.6,21.1,17.4,31.6,26.1c4.4,3.7,4.6,6.1,1,10.5
	c-2.2,2.7-4.5,5.3-6.8,8c-4.9,5.8-6.7,6-12.7,1.1c-25.3-21.1-50.7-42.2-76-63.3C159.7,49.3,147.5,39.1,135,28.7z"/>
</svg>
