<?xml version="1.0" encoding="utf-8"?>
<!-- Generator: Adobe Illustrator 19.2.1, SVG Export Plug-In . SVG Version: 6.00 Build 0)  -->
<svg version="1.1" id="Layer_1" xmlns="http://www.w3.org/2000/svg" xmlns:xlink="http://www.w3.org/1999/xlink" x="0px" y="0px"
	 viewBox="0 0 43.8 65.7" style="enable-background:new 0 0 43.8 65.7;" xml:space="preserve">
<style type="text/css">
	.st0{fill:#1A1A1A;}
</style>
<path class="st0" d="M36.8,65.7H7c-3.8,0-7-3.2-7-7V28.9c0-3.9,3.2-7,7-7h29.8c3.8,0,7,3.1,7,7v29.8C43.8,62.6,40.7,65.7,36.8,65.7z
	"/>
<path class="st0" d="M22,0C12.5,0,5,7.1,5,17.1v8h5v-8c0-7,5.4-11.9,12-11.9c6.6,0,12,4.9,12,11.9v8h5v-8C39,7.1,31.4,0,22,0z"/>
</svg>
