<?xml version="1.0" encoding="utf-8"?>
<!-- Generator: Adobe Illustrator 19.2.1, SVG Export Plug-In . SVG Version: 6.00 Build 0)  -->
<svg version="1.1" id="Layer_1" xmlns="http://www.w3.org/2000/svg" xmlns:xlink="http://www.w3.org/1999/xlink" x="0px" y="0px"
	 viewBox="0 0 63.1 62" style="enable-background:new 0 0 63.1 62;" xml:space="preserve">
<style type="text/css">
	.st0{fill-rule:evenodd;clip-rule:evenodd;}
</style>
<g id="Hj9kXz_2_">
	<g>
		<path class="st0" d="M5.6,62C4,61.7,2.5,61,1,60.2C0.5,60,0,59,0,58.5c0.2-2.4,0.5-4.7,1-7c0.7-3.3,2.6-5.6,5.8-6.8
			c4.4-1.6,8.7-3.4,13.1-5c2.2-0.8,3.3-2.3,4-4.4c0.4-1.2,0.1-2-0.7-2.9C17.6,25.7,16.5,18,18.4,10c1.6-6.9,6.6-10.2,14.2-10
			C39,0.2,43.9,4.1,45.1,10.6c1.4,7.9,0.4,15.4-5.1,21.7c-1.5,1.7,0,5.7,2.5,6.8c3.7,1.6,7.4,3.3,11.3,4.3c6.7,1.8,9.1,6.4,9.4,12.8
			c0.2,3.9,0.2,4.9-3.7,5.8H5.6z"/>
	</g>
</g>
</svg>
