<?xml version="1.0" encoding="utf-8"?>
<!-- Generator: Adobe Illustrator 19.2.1, SVG Export Plug-In . SVG Version: 6.00 Build 0)  -->
<svg version="1.1" id="Layer_1" xmlns="http://www.w3.org/2000/svg" xmlns:xlink="http://www.w3.org/1999/xlink" x="0px" y="0px"
	 viewBox="0 0 199.6 104.4" style="enable-background:new 0 0 199.6 104.4;" xml:space="preserve">
<style type="text/css">
	.st0{fill:#4E96E2;}
</style>
<path class="st0" d="M77.4,33.7c4.7-11.9,14.4-15.6,24.9-17.5c7-1.3,14.3-1.4,21.2,0.9c7.4,2.5,9.3,7.2,6,14.2
	c-3,6.3-7.1,10.3-15,9.8C105.7,40.5,96.8,41,88,41c-3.5,0-6.8,0.2-10-3c-1.4-1.4-4.6,3.2-8.4,3.2c-18.2,0.1-36.2-0.5-54-4.2
	c-3.8-0.8-6.3-2.8-5.7-6.7c0.6-3.7,3.4-5.4,7.5-4.6C34.4,29,51.6,29.9,69,29.2C72.3,29.1,75.2,29.9,77.4,33.7z"/>
<path class="st0" d="M126,57c-15.3,0-29.8,0-44.3,0c-1.5,0-3,0-4.5-0.1c-2.1-0.2-3.4-1.7-3.5-3.6c-0.1-2.1,1.4-3.3,3.3-3.8
	c1.1-0.3,2.3-0.2,3.5-0.2c16,0,32,0,48,0c6.5,0,7.8,1.8,5.5,7.7c-4.1,10.5-8.3,20.9-12.2,31.4c-1.2,3.4-3.1,4.6-6.6,4.6
	c-13.2-0.1-26.3-0.1-39.5,0c-5,0-8.7-3-12.7-5.2c-1.4-0.8-2.1-2.5-0.8-4.4c1.1-1.5,2.4-2.6,4.1-1.7c14.8,7.2,30.5,2,45.6,3.6
	c1.7,0.2,3,0,3.8-2.1C119,74.6,122.4,66.2,126,57z"/>
<path class="st0" d="M159.5,19.4c0,0.8,0.1,1.7,0,2.5c-0.4,2.3,1.5,5.8-1.6,6.5c-3.4,0.7-6.7-1.5-9.2-4c-2-2-4-4.1-2.3-7.4
	c0.9-1.8,2.1-3.4,3.8-4.5c2.5-1.7,5.2-3.8,8.1-2.4c2.7,1.3,0.8,4.5,1.2,6.8C159.6,17.8,159.5,18.6,159.5,19.4z"/>
<path class="st0" d="M134.2,11c-0.3,0.4-0.6,1-1.1,1.4c-0.9,0.8-1.6,0-2.1-0.5c-0.5-0.5-0.7-1.1-1.1-1.7c-4.4-7-4.4-6.9-12.2-5.4
	c-1.6,0.3-4.3,2.4-5-0.7c-0.6-2.7,2.6-1.8,4-2.7c0.4-0.3,1-0.3,1.4-0.4c10.1-2.3,11.7-1.4,15.4,8.3C133.7,9.8,133.9,10.3,134.2,11z"
	/>
<path class="st0" d="M28.4,47.6C12.7,47.6,0,60.3,0,76c0,15.7,12.7,28.4,28.4,28.4S56.8,91.7,56.8,76C56.8,60.3,44.1,47.6,28.4,47.6
	z M28.6,93.5c-9.8,0.1-17.2-7.4-17.2-17.3c0-10.1,7-17.2,17-17.2c10.1,0,17.2,7,17.3,17C45.7,86,38.4,93.4,28.6,93.5z"/>
<path class="st0" d="M199.1,68.5c-3.6-19.5-21.9-31.2-40-25.8c-3.6,1.1-4.9,0-6.4-2.8c-4.3-7.8-8.8-15.6-13.3-23.3
	c-1.4-2.4-3.1-4.2-6-2.4c-2.6,1.6-1.9,3.8-0.6,6c4.4,7.6,8.6,15.4,13.2,22.8c2.1,3.3,2,5.1-1,8.1c-9.1,9.1-11.8,20.3-7.4,32.5
	c4.1,11.4,12.2,18.7,24.6,20.5c3.7,0.4,7.1,0.4,10.5,0C190.6,102.1,201.9,83.3,199.1,68.5z M174,92.4c-8.6,2.8-17.5,0-23-7.3
	c-4.9-6.4-4.9-17.1-0.1-23.8c2.8-4,3.4-3.9,5.9,0.3c2.4,4.2,4.8,8.3,7.2,12.5c1.2,2,2.5,3.7,5.1,2.3c2.8-1.4,2.4-3.6,1.1-5.8
	c-2.6-4.6-5.1-9.3-7.9-13.8c-1.4-2.2-1-3.2,1.5-3.7c12.6-2.4,23.9,7.2,23.9,20.1C187.6,82.4,182.5,89.6,174,92.4z"/>
</svg>
