<?xml version="1.0" encoding="utf-8"?>
<!-- Generator: Adobe Illustrator 19.2.1, SVG Export Plug-In . SVG Version: 6.00 Build 0)  -->
<svg version="1.1" id="Layer_1" xmlns="http://www.w3.org/2000/svg" xmlns:xlink="http://www.w3.org/1999/xlink" x="0px" y="0px"
	 viewBox="0 0 128 167.3" style="enable-background:new 0 0 128 167.3;" xml:space="preserve">
<style type="text/css">
	.st0{fill:#4E96E2;}
</style>
<g>
	<path class="st0" d="M88.8,73.1c-3.6,0.6-7.1,1.5-10.5,2.9c-2.4,1-3.5,0.5-4.9-1.5C70,69.7,66.2,65,62.5,60.3
		c-1-1.3-1.8-3.1-1.9-3.6c-0.1-0.4,0.1-1.3,0.8-3.2c2.1-5.6,3.6-11.4,4-16.1c0.2-8.6-2.4-12.5-7.8-13.1c-8.5-1-15,5.2-14.3,13.7
		c0.6,7.1,4.7,12.6,8.9,18c0.6,0.8,1.3,1.8,1.5,2.2c0.6,0.9,0.7,0.9-0.3,4.5c-2,7.4-5.3,14.3-7.5,21.6c-0.5,1.8-1.4,4.1-1.8,4.5
		c-0.8,1.2-2.8,1.5-4.5,2.1c-7.5,2.7-14.9,6-19.6,12.9c-3,4.4-2.4,9,1.4,12.6c4.2,4.1,8.5,4.5,13,1.1c3.7-2.7,6.3-6.6,7.9-10.6
		c2.9-7.5,5.4-13.5,7-14.2c4.8-2.2,8.6-4.4,14.2-6.2c2.6-0.9,8.4-3.6,9.6-3.2c0.8,0.2,3.5,3.2,5.4,5.5c6.6,8.4,13.5,6.5,17-3.8
		c0.5-1.5,1-3.2,1-4.8C96.9,75,94,72.3,88.8,73.1z M33.7,112.2c-3.1,2.9-5.7,2.4-8.3,0c-2.7-2.5-2.1-4.8,0.2-7.8
		c4.6-5.9,8.2-7,16.3-9.2C40.2,102.1,38.2,108,33.7,112.2z M50.3,44.5c-0.8-1.6-1.1-4-1.5-5.8c-0.5-2.4-0.6-5.5,1.8-7.5
		c1.9-1.6,5.3-2.7,7.7-0.9c2.6,1.9,2.5,2.7,2.6,6c0,2-0.2,3.6-0.9,7.6c-0.5,3.1-2.7,8.6-3.4,8.8C55,53.1,51.6,47.1,50.3,44.5z
		 M68,80.1c-5.7,2-12.1,4.8-18.1,7.1c1.6-5,2.9-8.3,3.9-12c1.1-3.8,2.6-7.5,4.2-12c4,5,7.5,9.4,11,13.8C70.3,78.7,70,79.4,68,80.1z
		 M88.5,89.6c-4,0.9-11.5-8.4-10.6-9c2-1.5,5.1-2.5,10.4-3.5c3.8-0.4,4.6-0.1,4.8,2.8C93.3,83.1,90.8,89.1,88.5,89.6z"/>
	<polygon class="st0" points="118,120.8 118,116.8 104,116.8 104,136.8 109,136.8 109,128.8 117,128.8 117,125.8 109,125.8 
		109,120.8 	"/>
	<path class="st0" d="M71.4,116.8H63v20h5v-6h3.5c5,0,7.9-2.6,7.9-7.2C79.3,119.2,76.5,116.8,71.4,116.8z M71.2,126.8H68v-6h3.2
		c2.2,0,3.4,0.9,3.4,3C74.6,125.9,73.4,126.8,71.2,126.8z"/>
	<path class="st0" d="M90.4,116.8H82v20h8.2c6.3,0,10.6-4.2,10.6-10C100.8,121,96.6,116.8,90.4,116.8z M90.5,132.8H87v-12h3.3
		c3.2,0,5.5,2.6,5.5,6C95.7,130.3,93.6,132.8,90.5,132.8z"/>
	<path class="st0" d="M53,106.8v41h75v-41H53z M123,142.8H58v-31h65V142.8z"/>
	<path class="st0" d="M114.5,147.8c0,0-0.1,0.7-0.1,1c-0.1,0.3,0,0.7,0,1c0,8.7-0.5,9.1-8.9,9.1c-18.5,0-37,0-55.5,0
		c-11.5,0-23,0-34.5,0c-5.9,0-7.2-1.4-7.2-7.4c0-22.7,0-45.3,0-68c0-22.7,0-45.3,0-68c0-5.9,1.4-7.3,7.3-7.3
		c22.2,0,44.3,0.1,66.5-0.1c3.3,0,4.3,1,4.2,4.2c-0.2,7,0,14-0.1,21c-0.1,2.8,0.7,3.7,3.6,3.7c7.2-0.2,14.3,0.1,21.5-0.1
		c2.7-0.1,3.3,0.8,3.3,3.4c-0.1,21.8-0.1,43.8,0,65.7c0,0.2,0-0.3,0,0.7h8.9c-0.1-1-0.1-2.4-0.1-4.1c0-21.9,0-44,0-65.9
		c0-2.1,0-4.1-1.8-5.9c-9.5-9.2-18.8-18.6-28.2-28c-0.2-0.1-0.4-0.1-0.5-0.3c-2.3-2-5.8-2.5-7-2.6C60.8,0,36,0,11.2,0
		C5.2,1.3,1,4.5,0,10.9c0,48.8,0.1,97.6,0.1,146.3c1.2,6,5.2,9.1,11,10.1c33.7,0,67.4-0.1,101.1-0.1c7.5-2.3,10.8-6.6,11-14.5
		c0-2.1,0.1-3.8,0.2-4.8H114.5z"/>
</g>
</svg>
