<?xml version="1.0" encoding="utf-8"?>
<!-- Generator: Adobe Illustrator 19.2.1, SVG Export Plug-In . SVG Version: 6.00 Build 0)  -->
<svg version="1.1" id="Layer_1" xmlns="http://www.w3.org/2000/svg" xmlns:xlink="http://www.w3.org/1999/xlink" x="0px" y="0px"
	 viewBox="0 0 150.8 147.7" style="enable-background:new 0 0 150.8 147.7;" xml:space="preserve">
<path d="M124,147.7c-6-2.1-16.4-5-26.2-9.3c-19.1-8.5-37.1-19.2-51.7-34.3C25.3,83,9,58.9,0.9,29.9C-3.9,12.5,10.8,1.1,23.3,0
	c2.1-0.2,5.1,1.3,6.4,3c8.8,11.9,17.5,23.8,25.5,36.2c1.4,2.1,0.5,6.7-0.9,9.2c-2.2,4-5.6,7.4-8.9,10.7c-2.5,2.5-3,5-1.5,8.1
	c8.7,16.9,21.4,29.9,38.3,38.6c3.4,1.7,6.1,1.1,8.8-2c12.3-13.9,14.8-14.4,30.6-4.8c8.2,5,15.9,10.8,23.9,16.2
	c5,3.4,5.9,7.9,4.5,13.5C147.6,139.4,138.1,147.9,124,147.7z"/>
</svg>
