<?xml version="1.0" encoding="utf-8"?>
<!-- Generator: Adobe Illustrator 19.2.1, SVG Export Plug-In . SVG Version: 6.00 Build 0)  -->
<svg version="1.1" id="Layer_1" xmlns="http://www.w3.org/2000/svg" xmlns:xlink="http://www.w3.org/1999/xlink" x="0px" y="0px"
	 viewBox="0 0 376 376.2" style="enable-background:new 0 0 376 376.2;" xml:space="preserve">
<style type="text/css">
	.st0{fill:#52A825;}
</style>
<path class="st0" d="M0,93C1,62.2,12.2,37.4,31.5,16C40,6.6,51.9,4.8,63.4,2.1c4.7-1.1,9.5-1.5,14.3-2c5.1-0.6,9.2,1.4,11.8,5.8
	c6.1,10.5,11.9,21.2,18,31.7c7.4,12.8,15.1,25.5,22.6,38.2c1,1.7,2.1,3.4,3.1,5.1c4.1,7.5,4,12.9-1.9,19.2
	c-6.4,6.7-13.6,12.7-20.5,19c-5.8,5.2-11.8,10.3-17.5,15.6c-5.8,5.4-7.4,11.9-3.2,18.9c8.6,14.6,16.9,29.5,26.4,43.5
	c22.8,33.6,53.1,59,88.2,79c6.1,3.5,12.1,7,18.3,10.2c6.9,3.7,13.4,2.4,18.5-3.3c7.4-8.1,14.4-16.6,21.7-24.8
	c4-4.5,8.1-8.9,12.5-12.9c6.9-6.2,11.9-6.7,19.9-2.1c9,5.3,17.7,11.3,26.8,16.5c13.9,7.9,28.1,15.2,41.9,23.2
	c13.4,7.7,12.3,7.7,11.2,23.4c-0.4,4.9-2,9.7-3,14.6c-2.8,14-10.5,24.5-22.2,32.5c-15.6,10.6-32.3,18.7-51,21.6
	c-14.8,2.3-29.5,1.1-43.8-3.6c-32.3-10.5-64.5-21.3-93.1-40.3c-25.9-17.2-49-37.8-70.6-60.2c-20.5-21.3-39.7-43.7-54.2-69.6
	C21.3,172.2,9.8,141,2,108.5C0.6,102.9,0.5,97,0,93z"/>
</svg>
