<?xml version="1.0" encoding="utf-8"?>
<!-- Generator: Adobe Illustrator 19.2.1, SVG Export Plug-In . SVG Version: 6.00 Build 0)  -->
<svg version="1.1" id="Layer_1" xmlns="http://www.w3.org/2000/svg" xmlns:xlink="http://www.w3.org/1999/xlink" x="0px" y="0px"
	 viewBox="0 0 285.1 93" style="enable-background:new 0 0 285.1 93;" xml:space="preserve">
<style type="text/css">
	.st0{fill:#FFFFFF;}
</style>
<g>
	<path class="st0" d="M268.9,63.6c-0.1,3.9,0.5,8.3,5.7,8.3c4.6,0,8-3.1,8.8-7.6h0.9c-0.9,5-4.6,8.4-9.7,8.4
		c-6.4,0-10.9-4.9-10.9-12.2c0-5.3,4.3-12.2,10.3-12.2c6.5,0,9.8,7.2,9.8,9.6c0,0.3-0.2,0.5-0.5,0.5H269L268.9,63.6L268.9,63.6z
		 M278.4,56c0-3.5-0.9-6.8-4.6-6.8c-3.8,0-5,3.2-5,6.8v1.5h9.2c0.3,0,0.4-0.2,0.4-0.4V56z"/>
	<path class="st0" d="M40.8,3.4c20.6,0,37.4,16.8,37.4,37.4S61.4,78.2,40.8,78.2S3.4,61.4,3.4,40.8C3.4,20.2,20.2,3.4,40.8,3.4
		 M40.8,0C18.3,0,0,18.3,0,40.8s18.3,40.8,40.8,40.8s40.8-18.3,40.8-40.8S63.3,0,40.8,0"/>
	<path class="st0" d="M21.9,38.2c-5.3,0-9.6,4.3-9.6,9.6s4.3,9.6,9.6,9.6s9.6-4.3,9.6-9.6S27.3,38.2,21.9,38.2 M60.7,38.2
		c-5.3,0-9.6,4.3-9.6,9.6s4.3,9.6,9.6,9.6s9.6-4.3,9.6-9.6S66,38.2,60.7,38.2 M46.1,35.6c-0.9-1.9-9.5-2.2-11.6-2.4
		c0,0,5.3-0.8,7.1-0.4l0.4-0.5c0,0-0.1-0.4,0.4-1.2c0.5-0.8,3.9-3,3.9-3c-1,1-4.4,3.2-2.6,4.8c0.6,0.5,1.6,0.8,2.3,0.9
		c1.5,0.2,3.3,0.6,4.8,0.7c0,0,0.6-0.3,1.1-0.8c0.7-0.7,1-1.1,1-1.1s-4.6-0.8-5.1-1.8c-0.4-0.7,2.5-1.9,3.8-2.4
		c0.7,0.4,1.6,0.9,1.9,0.7c0.4-0.2,0.7-0.9,0.9-1.4s-0.3-1.1-1.1-1.8L51,24l0.8-1.3l3.4,1.6c0-2.1-1.4-4.2-3.7-5.3
		c-3-1.4-6.4-0.4-7.6,2.1c-0.4,0.9-0.5,2-0.3,3c-4.4-0.1-9.2,2.3-13.9,6.5c-8,7.1,0.9,8.9,2.2,8.9c2.4,0,9.6-2.7,9.6-2.7l-4.3,2
		c0,0-1.4,1.6-2.3,2.5c-0.9,0.9-2.7,2-2.7,2s0.4,0.7,0.6,1.4c0.3,0.7,0.4,1.7,0.4,1.7C36.7,45.5,48.2,40,46.1,35.6 M25.6,37
		c-0.6-0.8-0.9-2.6,0.4-5.1h-8.1c-2.2,0-4.1,1.8-4.1,4.1v0.5h8.3C23.3,36.5,24.5,36.7,25.6,37 M60.9,35.9c0,0,4.6,0,5.3,0
		c0.3,0,4.3,0,0.4-4c-2.2-2.2-6.1-4.7-10.8-4.7h-0.1c-0.4,4.6-3.5,8.4-7.4,9c-0.4,2.1-1.9,4.2-3.5,5.5c-1.9,1.6-5.7,4.1-8.6,5
		c-1.1,0.3-1.8,0.6-2.2,0.7c0,0.1,0,0.1,0,0.2c0,0.8-0.1,1.6-0.2,2.4h11.5c3.2,0,3.9-1.6,3.9-2.4C49.1,41.2,54.3,35.9,60.9,35.9"/>
	<path class="st0" d="M89,30.4h0.7c0.4,2.8,1.9,7.7,7.6,7.7c3,0,5.3-2,5.3-5.1c0-4.3-3.3-4.4-6.2-4.7c-3.6-0.4-7-0.9-7-6.6
		c0-4,2.6-7.1,6.9-7.1c3,0,5,1.9,5.5,1.9c0.3,0,0.4-0.4,0.4-1.2V15h0.8l0.2,6.5h-0.7c-0.4-3.1-2-6-6.4-6c-2.8,0-5.1,1.5-5.1,4.4
		s2.1,3.8,5.8,4.1l1.9,0.1c4.4,0.3,6.3,2.7,6.3,6.5c0,5.1-3.4,8.5-7.6,8.5c-4.3,0-5.7-2.4-6.8-2.4c-0.7,0-0.5,0.9-0.7,2h-0.8
		L89,30.4z"/>
	<path class="st0" d="M107.6,16.7h-3v-0.9h24.7v0.9h-4.4l7.3,16.9l5.2-12c0.7-1.5,0.9-2.4,0.9-3.2c0-1-0.7-1.6-2.6-1.6h-1.5v-0.9
		h9.6v0.9c-3.4,0-4.1,1.5-5.3,4.3l-8.1,18.6H130L123.9,26l-5.8,13.7h-0.4L107.6,16.7z M119.9,33.2l3.5-8.2l-3.6-8.2H113L119.9,33.2z
		"/>
	<path class="st0" d="M161.4,35.4c0,1,0.2,2.4,1.6,2.4c1.3,0,2-1,2.9-2.2l0.6,0.4c-1,1.8-2.5,3-4.8,3c-2.6,0-4.4-1.5-4.8-3.4h-0.1
		c-1.9,2.5-4.3,3.4-8,3.4c-4.3,0-6.9-2.1-6.9-5.9c0-6.1,8.2-7.7,13.8-7.7h1v-6.8c0-2.6-2.4-3.2-4.5-3.2c-1.6,0-5.3,0.6-5.3,2.6
		c0,1.3,1.8,0.7,1.8,3.2c0,1.3-1.1,2.3-2.5,2.3c-1.5,0-2.4-1.2-2.4-3.1c0-2.8,3-5.9,8.5-5.9c4.2,0,9.1,2.1,9.1,6.4L161.4,35.4
		L161.4,35.4z M155.9,26.4c-4,0-9,0.1-9,6c0,3.1,0.5,5.4,4,5.4c4.1,0,5.9-3.1,5.9-4.2v-7.2C156.8,26.4,155.9,26.4,155.9,26.4z"/>
	<path class="st0" d="M168.8,16.7h-4.3v-0.9h4.3c2.6,0,3.6,0,4.6-1.2v5.6h0.1c1.4-2.6,4.2-5.6,8.2-5.6c5.9,0,7.5,3,7.5,6.2v16.6h4.3
		v0.9h-13.3v-0.9h4.3v-18c0-3-1.5-4-3.2-4c-4.6,0-7,4.6-8,6.5v15.5h4.2v0.9h-13.1v-0.9h4.3L168.8,16.7L168.8,16.7z"/>
	<path class="st0" d="M196,16.7h-4.3v-0.9h4.3c2.6,0,3.6,0,4.6-1.2v5.6h0.1c1.4-2.6,4.2-5.6,8.2-5.6c5.9,0,7.5,3,7.5,6.2v16.6h4.3
		v0.9h-13.3v-0.9h4.3v-18c0-3-1.5-4-3.2-4c-4.6,0-7,4.6-8,6.5v15.5h4.2v0.9h-13.1v-0.9h4.3L196,16.7L196,16.7z"/>
	<path class="st0" d="M91.6,50.4h-4.4v-0.9h4.4c1.8,0,3.5-0.1,4.6-1.2v22.8h4.4V72H87.2v-0.9h4.4V50.4z"/>
	<path class="st0" d="M103.3,50.4H99v-0.9h4.3c2.6,0,3.6,0,4.6-1.2v5.6h0.1c1.4-2.6,4.2-5.6,8.2-5.6c5.9,0,7.5,3,7.5,6.2v16.6h4.3
		V72h-13.3v-0.9h4.3v-18c0-3-1.5-4-3.2-4c-4.6,0-7,4.6-8,6.5v15.5h4.2V72H99v-0.9h4.3V50.4z"/>
	<path class="st0" d="M128.2,64.1h0.7c0.4,2.8,1.9,7.7,7.6,7.7c3,0,5.3-2,5.3-5.1c0-4.3-3.3-4.4-6.2-4.7c-3.6-0.4-7-0.9-7-6.6
		c0-4,2.6-7.1,6.9-7.1c3,0,5,1.9,5.6,1.9c0.3,0,0.4-0.4,0.4-1.2v-0.4h0.8l0.2,6.5h-0.7c-0.4-3.1-2-6-6.4-6c-2.8,0-5.1,1.5-5.1,4.4
		s2.1,3.8,5.8,4.1l1.9,0.1c4.4,0.3,6.3,2.7,6.3,6.5c0,5.1-3.4,8.4-7.6,8.4c-4.3,0-5.7-2.4-6.8-2.4c-0.7,0-0.6,0.9-0.7,2h-0.8
		L128.2,64.1z"/>
	<path class="st0" d="M148.9,50.4h-4.4v-0.9h4.4c1.8,0,3.5-0.1,4.6-1.2V68c0,2.4,1.3,3.8,3.4,3.8c3.8,0,7.2-4.3,7.2-8.4v-13h-4.3
		v-0.9h4.3c1.8,0,3.5-0.1,4.6-1.2v22.8h4.4V72h-9v-5H164c-0.5,1.3-2.8,5.7-7.7,5.7c-5.5,0-7.5-2.9-7.5-6.1L148.9,50.4L148.9,50.4z"
		/>
	<path class="st0" d="M176.1,50.4h-4.6v-0.9h4.6c1.8,0,3.5-0.1,4.6-1.2v6.5h0.1c0.7-2.5,2.6-6.5,7.1-6.5c2,0,3.6,1.3,3.6,3.2
		c0,1.4-0.9,2.6-2.5,2.6c-1.8,0-2.4-0.9-2.4-2.4c0-1.2,0.6-2,1.2-2.4c-0.2-0.2-0.5-0.2-0.8-0.2c-2.3,0-6.3,3.6-6.3,10.7v11.3h5V72
		h-14.2v-0.9h4.6L176.1,50.4L176.1,50.4z"/>
	<path class="st0" d="M210.7,69.1c0,1,0.2,2.4,1.7,2.4c1.3,0,2-1,2.9-2.2l0.6,0.4c-1,1.8-2.5,3-4.8,3c-2.6,0-4.5-1.5-4.8-3.4H206
		c-1.9,2.5-4.3,3.4-8,3.4c-4.3,0-6.9-2.1-6.9-5.9c0-6.1,8.2-7.7,13.8-7.7h1v-6.8c0-2.6-2.4-3.2-4.5-3.2c-1.6,0-5.3,0.6-5.3,2.6
		c0,1.3,1.8,0.7,1.8,3.2c0,1.3-1.1,2.3-2.5,2.3c-1.5,0-2.4-1.2-2.4-3.1c0-2.8,3-5.9,8.5-5.9c4.2,0,9.1,2.1,9.1,6.4L210.7,69.1
		L210.7,69.1z M205.1,60c-4,0-9,0.1-9,6c0,3.1,0.5,5.4,4,5.4c4.1,0,5.9-3.1,5.9-4.2V60H205.1z"/>
	<path class="st0" d="M218.1,50.4h-4.3v-0.9h4.3c2.6,0,3.6,0,4.6-1.2v5.6h0.1c1.4-2.6,4.2-5.6,8.2-5.6c5.9,0,7.5,3,7.5,6.2v16.6h4.3
		V72h-13.3v-0.9h4.3v-18c0-3-1.5-4-3.2-4c-4.6,0-7,4.6-8,6.5v15.5h4.2V72h-13.1v-0.9h4.3L218.1,50.4L218.1,50.4z"/>
	<path class="st0" d="M263.2,64.3c-0.2,4.2-3.8,8.4-9.2,8.4c-7.1,0-11.6-5-11.6-11.3c0-7.2,5.5-13.1,12-13.1c3.8,0,7.9,1.7,7.9,5.1
		c0,1.6-1.3,2.7-2.6,2.7c-1.7,0-2.6-1.2-2.6-2.4c0-2.2,1.4-2.1,1.4-2.9c0-1.2-2.5-1.7-4.1-1.7c-5.3,0-6.6,3.5-6.6,8.7v4.8
		c0,4.8,0.2,9.2,6.4,9.2c5.5,0,8-4.2,8.3-7.5C262.5,64.3,263.2,64.3,263.2,64.3z"/>
	<g>
		<path class="st0" d="M148.9,84.7h0.6v1.4c0.5-0.8,1.3-1.6,2.6-1.6c1.5,0,3.1,1.2,3.1,3.3l0,0c0,2.1-1.5,3.3-3.1,3.3
			c-1.3,0-2.1-0.7-2.6-1.5V93h-0.6V84.7z M154.5,87.9L154.5,87.9c0-1.7-1.2-2.7-2.5-2.7s-2.6,1.1-2.6,2.7l0,0c0,1.6,1.3,2.7,2.6,2.7
			C153.4,90.6,154.5,89.6,154.5,87.9z"/>
		<path class="st0" d="M157.3,84.7h0.6v1.8c0.5-1.1,1.5-1.9,2.8-1.9v0.7h-0.1c-1.5,0-2.7,1.1-2.7,3.2V91h-0.6V84.7z"/>
		<path class="st0" d="M161.8,87.9L161.8,87.9c0-1.8,1.4-3.3,3.3-3.3c1.9,0,3.2,1.5,3.2,3.3l0,0c0,1.8-1.4,3.3-3.3,3.3
			C163.1,91.2,161.8,89.7,161.8,87.9z M167.6,87.9L167.6,87.9c0-1.5-1.1-2.8-2.6-2.8s-2.6,1.2-2.6,2.7l0,0c0,1.5,1.1,2.7,2.6,2.7
			C166.5,90.6,167.6,89.4,167.6,87.9z"/>
		<path class="st0" d="M170.7,89.4v-4.1h-0.9v-0.6h0.9v-2h0.6v2h2.2v0.6h-2.2v4.1c0,0.9,0.5,1.2,1.3,1.2c0.3,0,0.6-0.1,0.9-0.2V91
			c-0.3,0.1-0.6,0.2-1,0.2C171.5,91.1,170.7,90.6,170.7,89.4z"/>
		<path class="st0" d="M174.9,87.9L174.9,87.9c0-1.9,1.3-3.3,3-3.3c1.8,0,2.9,1.4,2.9,3.3c0,0.1,0,0.1,0,0.2h-5.2
			c0.1,1.6,1.2,2.5,2.5,2.5c1,0,1.6-0.4,2.2-1l0.4,0.4c-0.6,0.7-1.4,1.2-2.6,1.2C176.4,91.2,174.9,89.8,174.9,87.9z M180.2,87.6
			c-0.1-1.3-0.8-2.5-2.3-2.5c-1.3,0-2.2,1.1-2.3,2.5H180.2z"/>
		<path class="st0" d="M182.4,87.9L182.4,87.9c0-1.8,1.4-3.3,3.2-3.3c1.2,0,1.9,0.5,2.5,1.2l-0.4,0.4c-0.5-0.6-1.2-1-2.1-1
			c-1.4,0-2.6,1.2-2.6,2.7l0,0c0,1.5,1.2,2.7,2.6,2.7c0.9,0,1.6-0.5,2.1-1.1l0.4,0.4c-0.6,0.7-1.4,1.3-2.6,1.3
			C183.8,91.2,182.4,89.7,182.4,87.9z"/>
		<path class="st0" d="M190.5,89.4v-4.1h-0.9v-0.6h0.9v-2h0.6v2h2.2v0.6h-2.2v4.1c0,0.9,0.5,1.2,1.3,1.2c0.3,0,0.6-0.1,0.9-0.2V91
			c-0.3,0.1-0.6,0.2-1,0.2C191.3,91.1,190.5,90.6,190.5,89.4z"/>
		<path class="st0" d="M198.7,84.7h0.7l1.9,5.5l1.9-5.6h0.5l1.9,5.6l1.9-5.5h0.7l-2.3,6.4h-0.5l-1.9-5.4l-1.9,5.4H201L198.7,84.7z"
			/>
		<path class="st0" d="M210.2,82h0.6v3.9c0.4-0.7,1.1-1.3,2.3-1.3c1.6,0,2.5,1.1,2.5,2.6V91H215v-3.8c0-1.3-0.7-2.2-2-2.2
			c-1.2,0-2.2,0.9-2.2,2.3V91h-0.6V82z"/>
		<path class="st0" d="M217.5,89.2L217.5,89.2c0-1.3,1.1-2.1,2.8-2.1c0.9,0,1.5,0.1,2.1,0.3v-0.3c0-1.3-0.8-1.9-2.1-1.9
			c-0.8,0-1.4,0.2-2,0.5l-0.2-0.5c0.7-0.3,1.4-0.5,2.2-0.5c0.9,0,1.5,0.2,2,0.7c0.4,0.4,0.6,1,0.6,1.8V91h-0.6v-1
			c-0.4,0.6-1.2,1.2-2.4,1.2C218.7,91.2,217.5,90.5,217.5,89.2z M222.3,88.7V88c-0.5-0.1-1.2-0.3-2.1-0.3c-1.3,0-2.1,0.6-2.1,1.5
			l0,0c0,0.9,0.9,1.4,1.8,1.4C221.2,90.6,222.3,89.8,222.3,88.7z"/>
		<path class="st0" d="M225.6,89.4v-4.1h-0.9v-0.6h0.9v-2h0.6v2h2.2v0.6h-2.2v4.1c0,0.9,0.5,1.2,1.3,1.2c0.3,0,0.6-0.1,0.9-0.2V91
			c-0.3,0.1-0.6,0.2-1,0.2C226.4,91.1,225.6,90.6,225.6,89.4z"/>
		<path class="st0" d="M233.9,92.8l0.2-0.5c0.3,0.2,0.6,0.2,1.1,0.2c0.7,0,1.1-0.4,1.6-1.5l-3-6.3h0.7l2.6,5.6l2.3-5.6h0.7l-2.7,6.5
			c-0.6,1.3-1.2,1.8-2.1,1.8C234.7,93,234.3,92.9,233.9,92.8z"/>
		<path class="st0" d="M241.1,87.9L241.1,87.9c0-1.8,1.4-3.3,3.3-3.3c1.9,0,3.2,1.5,3.2,3.3l0,0c0,1.8-1.4,3.3-3.3,3.3
			C242.5,91.2,241.1,89.7,241.1,87.9z M246.9,87.9L246.9,87.9c0-1.5-1.1-2.8-2.6-2.8s-2.6,1.2-2.6,2.7l0,0c0,1.5,1.1,2.7,2.6,2.7
			C245.9,90.6,246.9,89.4,246.9,87.9z"/>
		<path class="st0" d="M249.6,88.6v-3.9h0.6v3.8c0,1.3,0.7,2.2,2,2.2c1.2,0,2.2-0.9,2.2-2.3v-3.7h0.6V91h-0.6v-1.2
			c-0.4,0.7-1.1,1.3-2.3,1.3C250.5,91.2,249.6,90.1,249.6,88.6z"/>
		<path class="st0" d="M261.5,82h0.6v9h-0.6V82z"/>
		<path class="st0" d="M264.3,87.9L264.3,87.9c0-1.8,1.4-3.3,3.3-3.3s3.2,1.5,3.2,3.3l0,0c0,1.8-1.4,3.3-3.3,3.3
			C265.7,91.2,264.3,89.7,264.3,87.9z M270.2,87.9L270.2,87.9c0-1.5-1.1-2.8-2.6-2.8s-2.6,1.2-2.6,2.7l0,0c0,1.5,1.1,2.7,2.6,2.7
			C269.1,90.6,270.2,89.4,270.2,87.9z"/>
		<path class="st0" d="M271.9,84.7h0.7l2.4,5.6l2.4-5.6h0.7l-2.8,6.4h-0.5L271.9,84.7z"/>
		<path class="st0" d="M279.2,87.9L279.2,87.9c0-1.9,1.3-3.3,3-3.3c1.8,0,2.9,1.4,2.9,3.3c0,0.1,0,0.1,0,0.2h-5.2
			c0.1,1.6,1.2,2.5,2.5,2.5c1,0,1.6-0.4,2.2-1L285,90c-0.6,0.7-1.4,1.2-2.6,1.2C280.6,91.2,279.2,89.8,279.2,87.9z M284.4,87.6
			c-0.1-1.3-0.8-2.5-2.3-2.5c-1.3,0-2.2,1.1-2.3,2.5H284.4z"/>
	</g>
</g>
</svg>
