<?xml version="1.0" encoding="utf-8"?>
<!-- Generator: Adobe Illustrator 19.2.1, SVG Export Plug-In . SVG Version: 6.00 Build 0)  -->
<svg version="1.1" id="Layer_1" xmlns="http://www.w3.org/2000/svg" xmlns:xlink="http://www.w3.org/1999/xlink" x="0px" y="0px"
	 viewBox="0 0 590.3 422.1" style="enable-background:new 0 0 590.3 422.1;" xml:space="preserve">
<style type="text/css">
	.st0{fill:#FFFFFF;}
</style>
<path class="st0" d="M295.2,422.1c-37.6-0.6-75.3-0.6-112.9-2c-35.7-1.4-71.5-3.9-107.1-6.6c-31.7-2.4-58.6-28-65.1-60.7
	c-6.7-33.3-9.4-66.9-9.8-100.7c-0.4-31-0.4-62,0.3-93C1.3,127.8,3.7,96.6,11.2,66C19.5,32.1,45.3,10.1,80,7.8
	c38.9-2.6,77.7-5,116.7-6.2c38.6-1.3,77.3-1.8,115.9-1.4c49.1,0.5,98.2,2,147.3,3.7c18.4,0.6,36.8,2.8,55.2,4.5
	c33,2.9,59,29.5,65.2,60.7c6.7,33.9,9.5,68.2,9.8,102.7c0.3,32,0.4,64-0.5,96c-0.8,29.8-3.5,59.5-10.5,88.6
	c-7.2,29.8-32.9,54.7-66.8,57.7c-46,4-92,6.3-138.1,6.8c-26.3,0.3-52.6,0.1-78.9,0.1C295.2,421.3,295.2,421.7,295.2,422.1z
	 M211,210.9c0,34.6,0.3,69.3-0.1,103.9c-0.3,19.8,20.6,26.5,32.1,19.2c55.9-35.2,111.9-70.3,168.1-105c13.2-8.2,13.3-28.3,0-36.5
	c-55.8-34.4-111.3-69.4-167-104c-3.3-2-7.3-3.6-11.1-3.9c-12.6-1-21.9,8.5-21.9,22.2C211,141.7,211,176.3,211,210.9z"/>
<path d="M211,210.9c0-34.6-0.1-69.3,0-103.9c0-13.7,9.3-23.2,21.9-22.2c3.8,0.3,7.9,1.8,11.1,3.9c55.7,34.6,111.2,69.6,167,104
	c13.3,8.2,13.3,28.3,0,36.5c-56.2,34.7-112.2,69.8-168.1,105c-11.6,7.3-32.4,0.6-32.1-19.2C211.4,280.2,211,245.6,211,210.9z"/>
</svg>
